<?xml version="1.0" encoding="UTF-8"?>
<svg width="512px" height="512px" viewBox="0 0 512 512" version="1.1" xmlns="http://www.w3.org/2000/svg" xmlns:xlink="http://www.w3.org/1999/xlink">
    <!-- Generator: Sketch 56.2 (81672) - https://sketch.com -->
    <title>buy 2</title>
    <desc>Created with Sketch.</desc>
    <g id="Page-1" stroke="none" stroke-width="1" fill="none" fill-rule="evenodd">
        <g id="buy" fill-rule="nonzero">
            <circle id="Oval" fill="#DE594E" cx="255.51654" cy="255.51654" r="255.51654"></circle>
            <path d="M409.451873,130.13841 L409.41191,130.178374 C406.976576,126.904295 403.104021,124.749193 398.712184,124.749193 L112.3341,124.749193 C104.908209,124.749193 98.9195397,130.77685 98.9195397,138.163265 L98.9195397,343.894121 C98.9195397,346.768566 99.8377245,349.404204 101.354873,351.559306 L101.354873,351.599269 L101.4348,351.679196 C102.273058,352.877125 103.351096,353.955163 104.588745,354.793421 L260.670636,510.902346 C399.400823,508.146817 511.03308,394.906001 511.03308,255.516418 C511.03308,247.06756 510.598111,238.722022 509.796893,230.483704 L409.451873,130.13841 Z" id="Path" fill="#000000" opacity="0.1"></path>
            <polygon id="Path" fill="#DBD8DD" points="211.528832 351.258483 305.926791 351.258483 305.926791 389.451363 211.528832 389.451363"></polygon>
            <path d="M398.707645,124.76226 L112.325403,124.76226 C104.915961,124.76226 98.9092748,130.769723 98.9092748,138.178922 L98.9092748,329.102102 L254.241699,346.326257 L412.123789,329.102102 L412.123789,138.178922 C412.123789,130.769723 406.117088,124.76226 398.707645,124.76226 Z" id="Path" fill="#344D5B"></path>
            <path d="M98.9092752,327.630551 L98.9092752,343.911575 C98.9092752,351.320774 104.915961,357.327201 112.325404,357.327201 L398.707646,357.327201 C406.117088,357.327201 412.12379,351.320774 412.12379,343.911575 L412.12379,327.630551 L98.9092752,327.630551 Z" id="Path" fill="#EDEDED"></path>
            <polygon id="Path" fill="#4ABBA4" points="119.243453 145.620501 391.789599 145.620501 391.789599 308.838334 119.243453 308.838334"></polygon>
            <path d="M256.850228,334.166463 C253.275266,334.166463 250.376972,337.065002 250.376972,340.639963 C250.376972,344.214925 253.275266,347.113494 256.850228,347.113494 C260.425464,347.113494 263.323728,344.214925 263.323728,340.639963 C263.323728,337.065002 260.425464,334.166463 256.850228,334.166463 Z" id="Path" fill="#344D5B"></path>
            <path d="M323.429059,385.338227 L187.604021,385.338227 C182.855224,385.338227 179.005559,389.187633 179.005559,393.937161 L179.005559,403.962534 L332.027536,403.962534 L332.027536,393.937161 C332.027536,389.187633 328.177886,385.338227 323.429059,385.338227 L323.429059,385.338227 Z" id="Path" fill="#344D5B"></path>
            <polygon id="Path" fill="#EDEDED" points="190.653794 186.030553 320.379242 186.030553 320.379242 245.459281 190.653794 245.459281"></polygon>
            <g id="Group" transform="translate(208.698873, 197.813220)" fill="#344D5B">
                <path d="M0.211803249,34.5346633 L0.211803249,0.752634747 L12.8858209,0.752634747 C15.4667224,0.752634747 17.5368108,1.09445639 19.0961013,1.77808411 C20.6553917,2.46171182 21.8766981,3.51404192 22.7600519,4.93505962 C23.643375,6.3560921 24.0850441,7.84241584 24.0850441,9.39401488 C24.0850441,10.8380906 23.6933293,12.1976701 22.9098385,13.4727539 C22.1263478,14.7478378 20.9434359,15.7771099 19.3611027,16.5606003 C21.4043099,17.1597322 22.9751142,18.1813437 24.0735303,19.6254189 C25.1719464,21.0694795 25.7211696,22.7747182 25.7211696,24.741106 C25.7211696,26.3234393 25.3870239,27.7943957 24.7187635,29.1539753 C24.0505031,30.5135548 23.2247643,31.5620318 22.2415626,32.2994366 C21.2583609,33.0368413 20.0255255,33.5937253 18.5430553,33.9701187 C17.0605699,34.3464818 15.243969,34.5346633 13.0932228,34.5346633 L0.211803249,34.5346633 Z M4.68227232,14.9475479 L11.9871309,14.9475479 C13.9688852,14.9475479 15.3899029,14.8169662 16.2502135,14.5558027 C17.3870242,14.2178346 18.2434817,13.6570971 18.8195709,12.8736064 C19.3956752,12.0901308 19.6837194,11.1069295 19.6837194,9.92401767 C19.6837194,8.80255877 19.4148645,7.81551953 18.8771859,6.96291514 C18.3395068,6.11029557 17.5713834,5.52651534 16.5728147,5.21159 C15.5742617,4.89666467 13.8613467,4.73918663 11.4340697,4.73918663 L4.68227232,4.73918663 L4.68227232,14.9475479 L4.68227232,14.9475479 Z M4.68227232,30.5481114 L13.0932228,30.5481114 C14.5372985,30.5481114 15.5512185,30.4943496 16.1349836,30.3868106 C17.1642709,30.202467 18.0245663,29.8952176 18.7158851,29.4650623 C19.4071887,29.0349221 19.975602,28.4088942 20.421109,27.5870085 C20.8666161,26.7651076 21.089385,25.8164785 21.089385,24.7411052 C21.089385,23.4813883 20.7667686,22.3868105 20.1215506,21.4573859 C19.4763175,20.5279617 18.5814654,19.8750526 17.4369481,19.4986744 C16.292446,19.1222961 14.6448219,18.9340994 12.4940909,18.9340994 L4.68227232,18.9340994 L4.68227232,30.5481114 Z" id="Shape"></path>
                <path d="M54.041852,0.752634747 L58.5123059,0.752634747 L58.5123059,20.2706365 C58.5123059,23.6657323 58.1282669,26.361849 57.3601279,28.3589703 C56.5920196,30.3560919 55.2055438,31.9806729 53.2007614,33.2326987 C51.1959487,34.4847394 48.5651232,35.1107525 45.3082851,35.1107525 C42.1436185,35.1107525 39.5550411,34.5653976 37.5425829,33.4746573 C35.5300943,32.3839323 34.0936945,30.8054369 33.2334146,28.7391869 C32.373104,26.6729364 31.9429487,23.8500915 31.9429487,20.2706369 L31.9429487,0.752634747 L36.4134329,0.752634747 L36.4134329,20.2475941 C36.4134329,23.1818159 36.6861102,25.3440911 37.2314651,26.7343897 C37.7768504,28.1246884 38.7139505,29.1962233 40.0427962,29.9489802 C41.3716723,30.7017368 42.9962536,31.078115 44.9165399,31.078115 C48.2041123,31.078115 50.546878,30.3330495 51.9448676,28.8428883 C53.3428573,27.352727 54.041852,24.487634 54.041852,20.2475941 L54.041852,0.752634747 Z" id="Path"></path>
                <path d="M75.4724641,34.5346633 L75.4724641,20.2245505 L62.4527869,0.752634747 L67.8911055,0.752634747 L74.5507157,10.9379376 C75.7797136,12.8428873 76.9242157,14.747837 77.9842216,16.6527715 C78.998142,14.8860946 80.2271398,12.8966492 81.6712151,10.6844652 L88.2156257,0.752634747 L93.4234844,0.752634747 L79.9429484,20.2245505 L79.9429484,34.5346633 L75.4724641,34.5346633 Z" id="Path"></path>
                <polygon id="Path" points="125.195705 59.1963145 105.277856 70.0508683 125.940329 90.7133414 118.809747 97.843893 98.1631433 77.197289 87.3085899 97.0834298 68.5155041 40.3873894"></polygon>
            </g>
        </g>
    </g>
</svg>